PathFileType	4	(X/Y/Z)	D:\Share\Shared_Data\Ergonomics\Sit To Stand Pertubation\S2\Unperturbed.trc
DataRate	CameraRate	NumFrames	NumMarkers	Units	OrigDataRate	OrigDataStartFrame	OrigNumFrames	
100	100	14	18	m	100	3371	241
Frame#	Time	R_Toe			R_ASIS			R_Pelvis			V_Sacral			L_Pelvis			L_ASIS			Clavical			R_Acromium			L_Acromium			Sternum			Torso			R_Thigh_Med			R_Thigh_Lat			R_Thigh			R_Shank_Med			R_Shank_Lat			R_Shank			R_Heel			
		X1	Y1	Z1	X2	Y2	Z2	X3	Y3	Z3	X4	Y4	Z4	X5	Y5	Z5	X6	Y6	Z6	X7	Y7	Z7	X8	Y8	Z8	X9	Y9	Z9	X10	Y10	Z10	X11	Y11	Z11	X12	Y12	Z12	X13	Y13	Z13	X14	Y14	Z14	X15	Y15	Z15	X16	Y16	Z16	X17	Y17	Z17	X18	Y18	Z18	

3371	33.7	0.44175647	0.064995148	0.14704741	0.26694922	0.91925421	0.14918907	0.20683809	0.95857312	0.19224695	0.064169403	0.98508313	0.030479832	0.17610036	0.97058667	-0.14760056	0.26478513	0.93225433	-0.11825912	0.5104248	1.2392063	0.009938879	0.45278476	1.3087761	0.21494357	0.44219543	1.3239739	-0.17313609	0.46587402	1.0837754	0.011311537	0.49766025	1.2038491	-0.10148969	0.43193951	0.48552185	0.11601235	0.41360602	0.50450604	0.21214194	0.39646075	0.69655841	0.18020818	0.30789319	0.10899468	0.11226105	0.28687952	0.099201782	0.20500896	0.36963559	0.35784671	0.2339778	0.20399895	0.059571472	0.15292188
3372	33.71	0.44178363	0.06496212	0.14705611	0.27026514	0.92396918	0.14920885	0.20991287	0.96272229	0.192125	0.067900177	0.98926562	0.030106615	0.17982468	0.97475848	-0.14774959	0.26878119	0.93703223	-0.118373	0.51103754	1.2469589	0.010339404	0.45253476	1.3160854	0.21524651	0.44233963	1.3310569	-0.1728562	0.46808279	1.0911007	0.011650206	0.49892474	1.2113927	-0.10118722	0.43058777	0.4859938	0.1159896	0.41226889	0.50511176	0.21196439	0.39783517	0.69704285	0.18018359	0.30794946	0.10900771	0.11219112	0.2868472	0.099309189	0.20487453	0.3684873	0.35840289	0.23387794	0.2040786	0.059648918	0.15285266
3373	33.72	0.44181122	0.064930107	0.14706148	0.27362308	0.92858685	0.14923033	0.21287898	0.9667345	0.19202025	0.071623169	0.9933056	0.029738523	0.18354004	0.97882971	-0.14789453	0.27277881	0.94172998	-0.1184852	0.51160162	1.254597	0.010751781	0.45218921	1.3233068	0.21556172	0.44244638	1.3380031	-0.17257652	0.47020004	1.0983337	0.012026484	0.50012164	1.2188173	-0.10086311	0.42923535	0.48645392	0.11592868	0.41094235	0.50571234	0.21175914	0.39919473	0.69748145	0.1801237	0.30800699	0.10902026	0.11211993	0.2868183	0.099416466	0.20474019	0.36735068	0.35896521	0.23374565	0.20415918	0.059729137	0.15278442
3374	33.73	0.44183875	0.064898376	0.14706401	0.27704639	0.9330979	0.149265	0.2157917	0.97059528	0.19193839	0.075333038	0.99719659	0.029377417	0.1872421	0.98279272	-0.14803429	0.276767	0.94633789	-0.11859196	0.51211395	1.2621138	0.011175879	0.45175046	1.3304237	0.21588728	0.4425097	1.3448085	-0.17229456	0.47222473	1.1054653	0.012436159	0.5012377	1.2261174	-0.10051951	0.42788495	0.48690024	0.11582477	0.40963052	0.50630432	0.21152271	0.40053461	0.69787134	0.18002364	0.30806543	0.10903114	0.11204477	0.28679196	0.099522141	0.20460384	0.36623053	0.35953088	0.23358026	0.20423969	0.059813438	0.15271907
3375	33.74	0.44186597	0.064866577	0.14706456	0.28054376	0.93749097	0.14932399	0.21870541	0.97429785	0.1918786	0.079023834	1.000934	0.029023697	0.1909267	0.98663971	-0.14816853	0.28073175	0.95084802	-0.11868829	0.51256763	1.2695011	0.011610806	0.45122021	1.3374189	0.21622141	0.44252106	1.3514695	-0.17200781	0.47415994	1.112485	0.012873158	0.50226242	1.2332887	-0.10015847	0.42653812	0.48733096	0.11567573	0.40833627	0.50688434	0.21125447	0.40184491	0.69820966	0.17988046	0.30812393	0.10903947	0.11196378	0.28676743	0.099625099	0.20446404	0.36512967	0.36009616	0.23338419	0.2043192	0.059902424	0.15265836
3376	33.75	0.44189291	0.064834915	0.14706453	0.28411154	0.94175555	0.14941496	0.22165182	0.97784442	0.19183292	0.082689445	1.0045145	0.028676653	0.19459004	0.9903631	-0.14829723	0.28465561	0.95525488	-0.118769	0.51295361	1.2767494	0.012054338	0.45059912	1.3442753	0.21656302	0.44247034	1.3579833	-0.17171336	0.47601245	1.1193815	0.013330272	0.50318839	1.2403267	-0.099782471	0.42519574	0.48774435	0.11548294	0.40706152	0.5074491	0.210957	0.40311255	0.69849457	0.17969386	0.30818146	0.10904461	0.1118763	0.28674347	0.099725113	0.2043199	0.36404745	0.36065479	0.23316283	0.20439713	0.059994892	0.15260298
3377	33.76	0.44191986	0.064804153	0.14706583	0.28773581	0.94588538	0.14953911	0.22463737	0.98124292	0.19179086	0.086324669	1.0079357	0.028335581	0.19822861	0.99395618	-0.14842041	0.28851758	0.95955469	-0.11882918	0.51326245	1.2838481	0.012502692	0.44988754	1.3509758	0.21691194	0.44234689	1.3643462	-0.17140837	0.4777916	1.1261432	0.013800026	0.50400894	1.247226	-0.099395325	0.42386008	0.48813904	0.11525188	0.40580737	0.50799622	0.21063515	0.40432565	0.69872534	0.17946744	0.30823676	0.10904616	0.11178292	0.28671863	0.099822388	0.20417145	0.36297964	0.36119897	0.23292288	0.20447273	0.060088001	0.1525522
3378	33.77	0.44194748	0.064775406	0.14707054	0.29139493	0.94987872	0.14969069	0.22765346	0.98450079	0.19174469	0.089925812	1.0111959	0.028000851	0.20183887	0.99741351	-0.14853917	0.29229446	0.96374487	-0.11886335	0.51348669	1.290787	0.012950872	0.44908682	1.3575046	0.21726825	0.4421412	1.3705542	-0.17109161	0.4795072	1.1327595	0.014274663	0.50472128	1.253981	-0.099001938	0.42253497	0.48851437	0.11499139	0.40457401	0.5085239	0.21029562	0.40548071	0.69890417	0.17920926	0.30828839	0.10904408	0.11168553	0.28669153	0.099916695	0.20402007	0.36192172	0.36172244	0.23267055	0.20454485	0.060179062	0.15250456
3379	33.78	0.44197723	0.064750237	0.14708051	0.29506235	0.95373663	0.14985912	0.23068655	0.98762244	0.19169112	0.093490097	1.0142941	0.027673656	0.20541718	1.0007312	-0.14865598	0.29596506	0.9678222	-0.11886372	0.51362231	1.2975551	0.013394208	0.44820023	1.3638462	0.21763187	0.44184534	1.3766027	-0.17076402	0.48116592	1.1392205	0.014746105	0.50532782	1.2605854	-0.098607208	0.42122467	0.48886987	0.11471191	0.40336087	0.50903119	0.20994672	0.40658594	0.69903571	0.17893129	0.30833533	0.10903864	0.1115868	0.28666119	0.10000722	0.20386856	0.36087106	0.36222205	0.23241119	0.20461172	0.06026754	0.15245895
3380	33.79	0.44201074	0.064730392	0.14709682	0.29871213	0.95746088	0.15003256	0.23372374	0.99060876	0.19163048	0.097015091	1.0172304	0.027354609	0.20896028	1.0039069	-0.1487737	0.29951498	0.97178088	-0.1188204	0.51366882	1.3041456	0.013830366	0.44723322	1.3699868	0.21800221	0.44145282	1.3824852	-0.17042732	0.48277011	1.1455178	0.015206745	0.50583405	1.2670338	-0.098215187	0.41993375	0.48920541	0.1144239	0.40216687	0.50951779	0.20959764	0.40765723	0.69912579	0.17864754	0.30837662	0.10903021	0.11148965	0.28662778	0.10009305	0.20372005	0.3598273	0.3626972	0.23215009	0.20467178	0.060355175	0.15241486
3381	33.8	0.44204956	0.064716904	0.14711922	0.30232642	0.96105328	0.15020137	0.23675465	0.99345801	0.19156482	0.1004989	1.020005	0.02704262	0.212466	1.0069391	-0.1488933	0.30294101	0.97561188	-0.11872548	0.51362848	1.3105564	0.014260623	0.44619287	1.375915	0.21837807	0.44095831	1.3881963	-0.17008315	0.48431854	1.1516458	0.015650149	0.50624423	1.2733231	-0.097828316	0.41866739	0.48952167	0.11413792	0.40099118	0.50998444	0.20925681	0.40870935	0.6991795	0.17837157	0.30841159	0.10901907	0.11139644	0.28659219	0.10017375	0.20357678	0.35879193	0.36314883	0.23189244	0.20472432	0.06044379	0.15237199
3382	33.81	0.44209375	0.064709007	0.14714598	0.30589835	0.9645155	0.15036034	0.23977208	0.99616718	0.19149689	0.10394064	1.0226199	0.02673502	0.21593364	1.0098282	-0.14901295	0.30625406	0.97930341	-0.1185788	0.51350494	1.3167919	0.014689898	0.44508618	1.3816227	0.21875793	0.44035782	1.3937305	-0.16973289	0.48580881	1.1576008	0.016071186	0.50655991	1.2794521	-0.097446991	0.41743057	0.48982022	0.11386407	0.39983365	0.51043271	0.20892996	0.4097504	0.69920044	0.17811522	0.30843976	0.10900545	0.11130879	0.28655609	0.1002493	0.20344025	0.35776801	0.36357831	0.23164261	0.20476999	0.060533279	0.15232945
3383	33.82	0.44214139	0.064703758	0.14717416	0.30942853	0.96784839	0.15050905	0.24277153	0.9987323	0.1914301	0.10734055	1.0250779	0.026428968	0.21936348	1.0125756	-0.14912981	0.30948358	0.98284222	-0.11839307	0.51330286	1.3228594	0.015124262	0.44391946	1.3871042	0.21914061	0.43964975	1.3990848	-0.16937738	0.48723862	1.1633824	0.016466087	0.50678183	1.2854214	-0.0970709	0.41622711	0.49010294	0.11361079	0.39869394	0.51086475	0.2086201	0.4107825	0.69919147	0.17788858	0.30846048	0.10898952	0.11122765	0.28652136	0.10031974	0.20331142	0.35675882	0.3639877	0.23140314	0.20481033	0.060621552	0.15228622
3384	33.83	0.44218881	0.064697403	0.1472012	0.31291849	0.97105212	0.15065109	0.24575014	1.001152	0.19136703	0.11069978	1.0273833	0.02612291	0.22275632	1.015184	-0.14924229	0.31267712	0.98621918	-0.1181935	0.51302887	1.328766	0.015566495	0.44269849	1.3923589	0.21952502	0.43883572	1.4042581	-0.16901653	0.48860675	1.1689924	0.016832628	0.50691431	1.2912295	-0.096701324	0.41505887	0.49037213	0.1133834	0.39756967	0.51128268	0.20832835	0.41180334	0.69915485	0.17770087	0.30847281	0.10897123	0.11115359	0.28648907	0.10038506	0.2031911	0.35576569	0.36437949	0.23117453	0.20484731	0.060705975	0.1522415
